<?xml version="1.0" encoding="utf-8" standalone="no"?>
<!DOCTYPE svg PUBLIC "-//W3C//DTD SVG 1.1//EN"
  "http://www.w3.org/Graphics/SVG/1.1/DTD/svg11.dtd">
<svg xmlns:xlink="http://www.w3.org/1999/xlink" width="1072.89875pt" height="353.214991pt" viewBox="0 0 1072.89875 353.214991" xmlns="http://www.w3.org/2000/svg" version="1.1">
 <metadata>
  <rdf:RDF xmlns:dc="http://purl.org/dc/elements/1.1/" xmlns:cc="http://creativecommons.org/ns#" xmlns:rdf="http://www.w3.org/1999/02/22-rdf-syntax-ns#">
   <cc:Work>
    <dc:type rdf:resource="http://purl.org/dc/dcmitype/StillImage"/>
    <dc:date>2025-11-22T10:57:03.356384</dc:date>
    <dc:format>image/svg+xml</dc:format>
    <dc:creator>
     <cc:Agent>
      <dc:title>Matplotlib v3.10.3, https://matplotlib.org/</dc:title>
     </cc:Agent>
    </dc:creator>
   </cc:Work>
  </rdf:RDF>
 </metadata>
 <defs>
  <style type="text/css">*{stroke-linejoin: round; stroke-linecap: butt}</style>
 </defs>
 <g id="figure_1">
  <g id="patch_1">
   <path d="M 0 353.214991 
L 1072.89875 353.214991 
L 1072.89875 0 
L 0 0 
z
" style="fill: #ffffff"/>
  </g>
  <g id="axes_1">
   <g id="patch_2">
    <path d="M 42.53875 298.804404 
L 336.716801 298.804404 
L 336.716801 23.077969 
L 42.53875 23.077969 
z
" style="fill: #ffffff"/>
   </g>
   <g id="patch_3">
    <path d="M 55.843285 298.804404 
L 85.408918 298.804404 
L 85.408918 64.458331 
L 55.843285 64.458331 
z
" clip-path="url(#ped3c73dd22)" style="fill: #1f77b4; opacity: 0.8"/>
   </g>
   <g id="patch_4">
    <path d="M 174.105818 298.804404 
L 203.671451 298.804404 
L 203.671451 83.506594 
L 174.105818 83.506594 
z
" clip-path="url(#ped3c73dd22)" style="fill: #1f77b4; opacity: 0.8"/>
   </g>
   <g id="patch_5">
    <path d="M 292.368351 298.804404 
L 321.933984 298.804404 
L 321.933984 77.926669 
L 292.368351 77.926669 
z
" clip-path="url(#ped3c73dd22)" style="fill: #1f77b4; opacity: 0.8"/>
   </g>
   <g id="matplotlib.axis_1">
    <g id="xtick_1">
     <g id="line2d_1">
      <defs>
       <path id="m8208e0268c" d="M 0 0 
L 0 3.5 
" style="stroke: #000000; stroke-width: 0.8"/>
      </defs>
      <g>
       <use xlink:href="#m8208e0268c" x="100.191735" y="298.804404" style="stroke: #000000; stroke-width: 0.8"/>
      </g>
     </g>
     <g id="text_1">
      <!-- RealTimeBP -->
      <g transform="translate(42.745348 328.392417) rotate(-15) scale(0.1 -0.1)">
       <defs>
        <path id="DejaVuSans-52" d="M 2841 2188 
Q 3044 2119 3236 1894 
Q 3428 1669 3622 1275 
L 4263 0 
L 3584 0 
L 2988 1197 
Q 2756 1666 2539 1819 
Q 2322 1972 1947 1972 
L 1259 1972 
L 1259 0 
L 628 0 
L 628 4666 
L 2053 4666 
Q 2853 4666 3247 4331 
Q 3641 3997 3641 3322 
Q 3641 2881 3436 2590 
Q 3231 2300 2841 2188 
z
M 1259 4147 
L 1259 2491 
L 2053 2491 
Q 2509 2491 2742 2702 
Q 2975 2913 2975 3322 
Q 2975 3731 2742 3939 
Q 2509 4147 2053 4147 
L 1259 4147 
z
" transform="scale(0.015625)"/>
        <path id="DejaVuSans-65" d="M 3597 1894 
L 3597 1613 
L 953 1613 
Q 991 1019 1311 708 
Q 1631 397 2203 397 
Q 2534 397 2845 478 
Q 3156 559 3463 722 
L 3463 178 
Q 3153 47 2828 -22 
Q 2503 -91 2169 -91 
Q 1331 -91 842 396 
Q 353 884 353 1716 
Q 353 2575 817 3079 
Q 1281 3584 2069 3584 
Q 2775 3584 3186 3129 
Q 3597 2675 3597 1894 
z
M 3022 2063 
Q 3016 2534 2758 2815 
Q 2500 3097 2075 3097 
Q 1594 3097 1305 2825 
Q 1016 2553 972 2059 
L 3022 2063 
z
" transform="scale(0.015625)"/>
        <path id="DejaVuSans-61" d="M 2194 1759 
Q 1497 1759 1228 1600 
Q 959 1441 959 1056 
Q 959 750 1161 570 
Q 1363 391 1709 391 
Q 2188 391 2477 730 
Q 2766 1069 2766 1631 
L 2766 1759 
L 2194 1759 
z
M 3341 1997 
L 3341 0 
L 2766 0 
L 2766 531 
Q 2569 213 2275 61 
Q 1981 -91 1556 -91 
Q 1019 -91 701 211 
Q 384 513 384 1019 
Q 384 1609 779 1909 
Q 1175 2209 1959 2209 
L 2766 2209 
L 2766 2266 
Q 2766 2663 2505 2880 
Q 2244 3097 1772 3097 
Q 1472 3097 1187 3025 
Q 903 2953 641 2809 
L 641 3341 
Q 956 3463 1253 3523 
Q 1550 3584 1831 3584 
Q 2591 3584 2966 3190 
Q 3341 2797 3341 1997 
z
" transform="scale(0.015625)"/>
        <path id="DejaVuSans-6c" d="M 603 4863 
L 1178 4863 
L 1178 0 
L 603 0 
L 603 4863 
z
" transform="scale(0.015625)"/>
        <path id="DejaVuSans-54" d="M -19 4666 
L 3928 4666 
L 3928 4134 
L 2272 4134 
L 2272 0 
L 1638 0 
L 1638 4134 
L -19 4134 
L -19 4666 
z
" transform="scale(0.015625)"/>
        <path id="DejaVuSans-69" d="M 603 3500 
L 1178 3500 
L 1178 0 
L 603 0 
L 603 3500 
z
M 603 4863 
L 1178 4863 
L 1178 4134 
L 603 4134 
L 603 4863 
z
" transform="scale(0.015625)"/>
        <path id="DejaVuSans-6d" d="M 3328 2828 
Q 3544 3216 3844 3400 
Q 4144 3584 4550 3584 
Q 5097 3584 5394 3201 
Q 5691 2819 5691 2113 
L 5691 0 
L 5113 0 
L 5113 2094 
Q 5113 2597 4934 2840 
Q 4756 3084 4391 3084 
Q 3944 3084 3684 2787 
Q 3425 2491 3425 1978 
L 3425 0 
L 2847 0 
L 2847 2094 
Q 2847 2600 2669 2842 
Q 2491 3084 2119 3084 
Q 1678 3084 1418 2786 
Q 1159 2488 1159 1978 
L 1159 0 
L 581 0 
L 581 3500 
L 1159 3500 
L 1159 2956 
Q 1356 3278 1631 3431 
Q 1906 3584 2284 3584 
Q 2666 3584 2933 3390 
Q 3200 3197 3328 2828 
z
" transform="scale(0.015625)"/>
        <path id="DejaVuSans-42" d="M 1259 2228 
L 1259 519 
L 2272 519 
Q 2781 519 3026 730 
Q 3272 941 3272 1375 
Q 3272 1813 3026 2020 
Q 2781 2228 2272 2228 
L 1259 2228 
z
M 1259 4147 
L 1259 2741 
L 2194 2741 
Q 2656 2741 2882 2914 
Q 3109 3088 3109 3444 
Q 3109 3797 2882 3972 
Q 2656 4147 2194 4147 
L 1259 4147 
z
M 628 4666 
L 2241 4666 
Q 2963 4666 3353 4366 
Q 3744 4066 3744 3513 
Q 3744 3084 3544 2831 
Q 3344 2578 2956 2516 
Q 3422 2416 3680 2098 
Q 3938 1781 3938 1306 
Q 3938 681 3513 340 
Q 3088 0 2303 0 
L 628 0 
L 628 4666 
z
" transform="scale(0.015625)"/>
        <path id="DejaVuSans-50" d="M 1259 4147 
L 1259 2394 
L 2053 2394 
Q 2494 2394 2734 2622 
Q 2975 2850 2975 3272 
Q 2975 3691 2734 3919 
Q 2494 4147 2053 4147 
L 1259 4147 
z
M 628 4666 
L 2053 4666 
Q 2838 4666 3239 4311 
Q 3641 3956 3641 3272 
Q 3641 2581 3239 2228 
Q 2838 1875 2053 1875 
L 1259 1875 
L 1259 0 
L 628 0 
L 628 4666 
z
" transform="scale(0.015625)"/>
       </defs>
       <use xlink:href="#DejaVuSans-52"/>
       <use xlink:href="#DejaVuSans-65" transform="translate(64.982422 0)"/>
       <use xlink:href="#DejaVuSans-61" transform="translate(126.505859 0)"/>
       <use xlink:href="#DejaVuSans-6c" transform="translate(187.785156 0)"/>
       <use xlink:href="#DejaVuSans-54" transform="translate(215.568359 0)"/>
       <use xlink:href="#DejaVuSans-69" transform="translate(273.527344 0)"/>
       <use xlink:href="#DejaVuSans-6d" transform="translate(301.310547 0)"/>
       <use xlink:href="#DejaVuSans-65" transform="translate(398.722656 0)"/>
       <use xlink:href="#DejaVuSans-42" transform="translate(460.246094 0)"/>
       <use xlink:href="#DejaVuSans-50" transform="translate(528.849609 0)"/>
      </g>
     </g>
    </g>
    <g id="xtick_2">
     <g id="line2d_2">
      <g>
       <use xlink:href="#m8208e0268c" x="218.454268" y="298.804404" style="stroke: #000000; stroke-width: 0.8"/>
      </g>
     </g>
     <g id="text_2">
      <!-- SinBP_D -->
      <g transform="translate(178.188238 323.769666) rotate(-15) scale(0.1 -0.1)">
       <defs>
        <path id="DejaVuSans-53" d="M 3425 4513 
L 3425 3897 
Q 3066 4069 2747 4153 
Q 2428 4238 2131 4238 
Q 1616 4238 1336 4038 
Q 1056 3838 1056 3469 
Q 1056 3159 1242 3001 
Q 1428 2844 1947 2747 
L 2328 2669 
Q 3034 2534 3370 2195 
Q 3706 1856 3706 1288 
Q 3706 609 3251 259 
Q 2797 -91 1919 -91 
Q 1588 -91 1214 -16 
Q 841 59 441 206 
L 441 856 
Q 825 641 1194 531 
Q 1563 422 1919 422 
Q 2459 422 2753 634 
Q 3047 847 3047 1241 
Q 3047 1584 2836 1778 
Q 2625 1972 2144 2069 
L 1759 2144 
Q 1053 2284 737 2584 
Q 422 2884 422 3419 
Q 422 4038 858 4394 
Q 1294 4750 2059 4750 
Q 2388 4750 2728 4690 
Q 3069 4631 3425 4513 
z
" transform="scale(0.015625)"/>
        <path id="DejaVuSans-6e" d="M 3513 2113 
L 3513 0 
L 2938 0 
L 2938 2094 
Q 2938 2591 2744 2837 
Q 2550 3084 2163 3084 
Q 1697 3084 1428 2787 
Q 1159 2491 1159 1978 
L 1159 0 
L 581 0 
L 581 3500 
L 1159 3500 
L 1159 2956 
Q 1366 3272 1645 3428 
Q 1925 3584 2291 3584 
Q 2894 3584 3203 3211 
Q 3513 2838 3513 2113 
z
" transform="scale(0.015625)"/>
        <path id="DejaVuSans-5f" d="M 3263 -1063 
L 3263 -1509 
L -63 -1509 
L -63 -1063 
L 3263 -1063 
z
" transform="scale(0.015625)"/>
        <path id="DejaVuSans-44" d="M 1259 4147 
L 1259 519 
L 2022 519 
Q 2988 519 3436 956 
Q 3884 1394 3884 2338 
Q 3884 3275 3436 3711 
Q 2988 4147 2022 4147 
L 1259 4147 
z
M 628 4666 
L 1925 4666 
Q 3281 4666 3915 4102 
Q 4550 3538 4550 2338 
Q 4550 1131 3912 565 
Q 3275 0 1925 0 
L 628 0 
L 628 4666 
z
" transform="scale(0.015625)"/>
       </defs>
       <use xlink:href="#DejaVuSans-53"/>
       <use xlink:href="#DejaVuSans-69" transform="translate(63.476562 0)"/>
       <use xlink:href="#DejaVuSans-6e" transform="translate(91.259766 0)"/>
       <use xlink:href="#DejaVuSans-42" transform="translate(154.638672 0)"/>
       <use xlink:href="#DejaVuSans-50" transform="translate(223.242188 0)"/>
       <use xlink:href="#DejaVuSans-5f" transform="translate(283.544922 0)"/>
       <use xlink:href="#DejaVuSans-44" transform="translate(333.544922 0)"/>
      </g>
     </g>
    </g>
    <g id="xtick_3">
     <g id="line2d_3">
      <g>
       <use xlink:href="#m8208e0268c" x="336.716801" y="298.804404" style="stroke: #000000; stroke-width: 0.8"/>
      </g>
     </g>
     <g id="text_3">
      <!-- SinBP_M -->
      <g transform="translate(295.554271 324.009883) rotate(-15) scale(0.1 -0.1)">
       <defs>
        <path id="DejaVuSans-4d" d="M 628 4666 
L 1569 4666 
L 2759 1491 
L 3956 4666 
L 4897 4666 
L 4897 0 
L 4281 0 
L 4281 4097 
L 3078 897 
L 2444 897 
L 1241 4097 
L 1241 0 
L 628 0 
L 628 4666 
z
" transform="scale(0.015625)"/>
       </defs>
       <use xlink:href="#DejaVuSans-53"/>
       <use xlink:href="#DejaVuSans-69" transform="translate(63.476562 0)"/>
       <use xlink:href="#DejaVuSans-6e" transform="translate(91.259766 0)"/>
       <use xlink:href="#DejaVuSans-42" transform="translate(154.638672 0)"/>
       <use xlink:href="#DejaVuSans-50" transform="translate(223.242188 0)"/>
       <use xlink:href="#DejaVuSans-5f" transform="translate(283.544922 0)"/>
       <use xlink:href="#DejaVuSans-4d" transform="translate(333.544922 0)"/>
      </g>
     </g>
    </g>
    <g id="text_4">
     <!-- Method -->
     <g transform="translate(167.124025 343.519366) scale(0.12 -0.12)">
      <defs>
       <path id="DejaVuSans-74" d="M 1172 4494 
L 1172 3500 
L 2356 3500 
L 2356 3053 
L 1172 3053 
L 1172 1153 
Q 1172 725 1289 603 
Q 1406 481 1766 481 
L 2356 481 
L 2356 0 
L 1766 0 
Q 1100 0 847 248 
Q 594 497 594 1153 
L 594 3053 
L 172 3053 
L 172 3500 
L 594 3500 
L 594 4494 
L 1172 4494 
z
" transform="scale(0.015625)"/>
       <path id="DejaVuSans-68" d="M 3513 2113 
L 3513 0 
L 2938 0 
L 2938 2094 
Q 2938 2591 2744 2837 
Q 2550 3084 2163 3084 
Q 1697 3084 1428 2787 
Q 1159 2491 1159 1978 
L 1159 0 
L 581 0 
L 581 4863 
L 1159 4863 
L 1159 2956 
Q 1366 3272 1645 3428 
Q 1925 3584 2291 3584 
Q 2894 3584 3203 3211 
Q 3513 2838 3513 2113 
z
" transform="scale(0.015625)"/>
       <path id="DejaVuSans-6f" d="M 1959 3097 
Q 1497 3097 1228 2736 
Q 959 2375 959 1747 
Q 959 1119 1226 758 
Q 1494 397 1959 397 
Q 2419 397 2687 759 
Q 2956 1122 2956 1747 
Q 2956 2369 2687 2733 
Q 2419 3097 1959 3097 
z
M 1959 3584 
Q 2709 3584 3137 3096 
Q 3566 2609 3566 1747 
Q 3566 888 3137 398 
Q 2709 -91 1959 -91 
Q 1206 -91 779 398 
Q 353 888 353 1747 
Q 353 2609 779 3096 
Q 1206 3584 1959 3584 
z
" transform="scale(0.015625)"/>
       <path id="DejaVuSans-64" d="M 2906 2969 
L 2906 4863 
L 3481 4863 
L 3481 0 
L 2906 0 
L 2906 525 
Q 2725 213 2448 61 
Q 2172 -91 1784 -91 
Q 1150 -91 751 415 
Q 353 922 353 1747 
Q 353 2572 751 3078 
Q 1150 3584 1784 3584 
Q 2172 3584 2448 3432 
Q 2725 3281 2906 2969 
z
M 947 1747 
Q 947 1113 1208 752 
Q 1469 391 1925 391 
Q 2381 391 2643 752 
Q 2906 1113 2906 1747 
Q 2906 2381 2643 2742 
Q 2381 3103 1925 3103 
Q 1469 3103 1208 2742 
Q 947 2381 947 1747 
z
" transform="scale(0.015625)"/>
      </defs>
      <use xlink:href="#DejaVuSans-4d"/>
      <use xlink:href="#DejaVuSans-65" transform="translate(86.279297 0)"/>
      <use xlink:href="#DejaVuSans-74" transform="translate(147.802734 0)"/>
      <use xlink:href="#DejaVuSans-68" transform="translate(187.011719 0)"/>
      <use xlink:href="#DejaVuSans-6f" transform="translate(250.390625 0)"/>
      <use xlink:href="#DejaVuSans-64" transform="translate(311.572266 0)"/>
     </g>
    </g>
   </g>
   <g id="matplotlib.axis_2">
    <g id="ytick_1">
     <g id="line2d_4">
      <path d="M 42.53875 298.804404 
L 336.716801 298.804404 
" clip-path="url(#ped3c73dd22)" style="fill: none; stroke-dasharray: 2.96,1.28; stroke-dashoffset: 0; stroke: #b0b0b0; stroke-opacity: 0.3; stroke-width: 0.8"/>
     </g>
     <g id="line2d_5">
      <defs>
       <path id="m6fbfb7d7c6" d="M 0 0 
L -3.5 0 
" style="stroke: #000000; stroke-width: 0.8"/>
      </defs>
      <g>
       <use xlink:href="#m6fbfb7d7c6" x="42.53875" y="298.804404" style="stroke: #000000; stroke-width: 0.8"/>
      </g>
     </g>
     <g id="text_5">
      <!-- 0 -->
      <g transform="translate(29.17625 302.603623) scale(0.1 -0.1)">
       <defs>
        <path id="DejaVuSans-30" d="M 2034 4250 
Q 1547 4250 1301 3770 
Q 1056 3291 1056 2328 
Q 1056 1369 1301 889 
Q 1547 409 2034 409 
Q 2525 409 2770 889 
Q 3016 1369 3016 2328 
Q 3016 3291 2770 3770 
Q 2525 4250 2034 4250 
z
M 2034 4750 
Q 2819 4750 3233 4129 
Q 3647 3509 3647 2328 
Q 3647 1150 3233 529 
Q 2819 -91 2034 -91 
Q 1250 -91 836 529 
Q 422 1150 422 2328 
Q 422 3509 836 4129 
Q 1250 4750 2034 4750 
z
" transform="scale(0.015625)"/>
       </defs>
       <use xlink:href="#DejaVuSans-30"/>
      </g>
     </g>
    </g>
    <g id="ytick_2">
     <g id="line2d_6">
      <path d="M 42.53875 242.096083 
L 336.716801 242.096083 
" clip-path="url(#ped3c73dd22)" style="fill: none; stroke-dasharray: 2.96,1.28; stroke-dashoffset: 0; stroke: #b0b0b0; stroke-opacity: 0.3; stroke-width: 0.8"/>
     </g>
     <g id="line2d_7">
      <g>
       <use xlink:href="#m6fbfb7d7c6" x="42.53875" y="242.096083" style="stroke: #000000; stroke-width: 0.8"/>
      </g>
     </g>
     <g id="text_6">
      <!-- 5 -->
      <g transform="translate(29.17625 245.895302) scale(0.1 -0.1)">
       <defs>
        <path id="DejaVuSans-35" d="M 691 4666 
L 3169 4666 
L 3169 4134 
L 1269 4134 
L 1269 2991 
Q 1406 3038 1543 3061 
Q 1681 3084 1819 3084 
Q 2600 3084 3056 2656 
Q 3513 2228 3513 1497 
Q 3513 744 3044 326 
Q 2575 -91 1722 -91 
Q 1428 -91 1123 -41 
Q 819 9 494 109 
L 494 744 
Q 775 591 1075 516 
Q 1375 441 1709 441 
Q 2250 441 2565 725 
Q 2881 1009 2881 1497 
Q 2881 1984 2565 2268 
Q 2250 2553 1709 2553 
Q 1456 2553 1204 2497 
Q 953 2441 691 2322 
L 691 4666 
z
" transform="scale(0.015625)"/>
       </defs>
       <use xlink:href="#DejaVuSans-35"/>
      </g>
     </g>
    </g>
    <g id="ytick_3">
     <g id="line2d_8">
      <path d="M 42.53875 185.387763 
L 336.716801 185.387763 
" clip-path="url(#ped3c73dd22)" style="fill: none; stroke-dasharray: 2.96,1.28; stroke-dashoffset: 0; stroke: #b0b0b0; stroke-opacity: 0.3; stroke-width: 0.8"/>
     </g>
     <g id="line2d_9">
      <g>
       <use xlink:href="#m6fbfb7d7c6" x="42.53875" y="185.387763" style="stroke: #000000; stroke-width: 0.8"/>
      </g>
     </g>
     <g id="text_7">
      <!-- 10 -->
      <g transform="translate(22.81375 189.186981) scale(0.1 -0.1)">
       <defs>
        <path id="DejaVuSans-31" d="M 794 531 
L 1825 531 
L 1825 4091 
L 703 3866 
L 703 4441 
L 1819 4666 
L 2450 4666 
L 2450 531 
L 3481 531 
L 3481 0 
L 794 0 
L 794 531 
z
" transform="scale(0.015625)"/>
       </defs>
       <use xlink:href="#DejaVuSans-31"/>
       <use xlink:href="#DejaVuSans-30" transform="translate(63.623047 0)"/>
      </g>
     </g>
    </g>
    <g id="ytick_4">
     <g id="line2d_10">
      <path d="M 42.53875 128.679442 
L 336.716801 128.679442 
" clip-path="url(#ped3c73dd22)" style="fill: none; stroke-dasharray: 2.96,1.28; stroke-dashoffset: 0; stroke: #b0b0b0; stroke-opacity: 0.3; stroke-width: 0.8"/>
     </g>
     <g id="line2d_11">
      <g>
       <use xlink:href="#m6fbfb7d7c6" x="42.53875" y="128.679442" style="stroke: #000000; stroke-width: 0.8"/>
      </g>
     </g>
     <g id="text_8">
      <!-- 15 -->
      <g transform="translate(22.81375 132.47866) scale(0.1 -0.1)">
       <use xlink:href="#DejaVuSans-31"/>
       <use xlink:href="#DejaVuSans-35" transform="translate(63.623047 0)"/>
      </g>
     </g>
    </g>
    <g id="ytick_5">
     <g id="line2d_12">
      <path d="M 42.53875 71.971121 
L 336.716801 71.971121 
" clip-path="url(#ped3c73dd22)" style="fill: none; stroke-dasharray: 2.96,1.28; stroke-dashoffset: 0; stroke: #b0b0b0; stroke-opacity: 0.3; stroke-width: 0.8"/>
     </g>
     <g id="line2d_13">
      <g>
       <use xlink:href="#m6fbfb7d7c6" x="42.53875" y="71.971121" style="stroke: #000000; stroke-width: 0.8"/>
      </g>
     </g>
     <g id="text_9">
      <!-- 20 -->
      <g transform="translate(22.81375 75.77034) scale(0.1 -0.1)">
       <defs>
        <path id="DejaVuSans-32" d="M 1228 531 
L 3431 531 
L 3431 0 
L 469 0 
L 469 531 
Q 828 903 1448 1529 
Q 2069 2156 2228 2338 
Q 2531 2678 2651 2914 
Q 2772 3150 2772 3378 
Q 2772 3750 2511 3984 
Q 2250 4219 1831 4219 
Q 1534 4219 1204 4116 
Q 875 4013 500 3803 
L 500 4441 
Q 881 4594 1212 4672 
Q 1544 4750 1819 4750 
Q 2544 4750 2975 4387 
Q 3406 4025 3406 3419 
Q 3406 3131 3298 2873 
Q 3191 2616 2906 2266 
Q 2828 2175 2409 1742 
Q 1991 1309 1228 531 
z
" transform="scale(0.015625)"/>
       </defs>
       <use xlink:href="#DejaVuSans-32"/>
       <use xlink:href="#DejaVuSans-30" transform="translate(63.623047 0)"/>
      </g>
     </g>
    </g>
    <g id="text_10">
     <!-- MAE (mmHg) -->
     <g transform="translate(16.318125 200.612437) rotate(-90) scale(0.12 -0.12)">
      <defs>
       <path id="DejaVuSans-41" d="M 2188 4044 
L 1331 1722 
L 3047 1722 
L 2188 4044 
z
M 1831 4666 
L 2547 4666 
L 4325 0 
L 3669 0 
L 3244 1197 
L 1141 1197 
L 716 0 
L 50 0 
L 1831 4666 
z
" transform="scale(0.015625)"/>
       <path id="DejaVuSans-45" d="M 628 4666 
L 3578 4666 
L 3578 4134 
L 1259 4134 
L 1259 2753 
L 3481 2753 
L 3481 2222 
L 1259 2222 
L 1259 531 
L 3634 531 
L 3634 0 
L 628 0 
L 628 4666 
z
" transform="scale(0.015625)"/>
       <path id="DejaVuSans-20" transform="scale(0.015625)"/>
       <path id="DejaVuSans-28" d="M 1984 4856 
Q 1566 4138 1362 3434 
Q 1159 2731 1159 2009 
Q 1159 1288 1364 580 
Q 1569 -128 1984 -844 
L 1484 -844 
Q 1016 -109 783 600 
Q 550 1309 550 2009 
Q 550 2706 781 3412 
Q 1013 4119 1484 4856 
L 1984 4856 
z
" transform="scale(0.015625)"/>
       <path id="DejaVuSans-48" d="M 628 4666 
L 1259 4666 
L 1259 2753 
L 3553 2753 
L 3553 4666 
L 4184 4666 
L 4184 0 
L 3553 0 
L 3553 2222 
L 1259 2222 
L 1259 0 
L 628 0 
L 628 4666 
z
" transform="scale(0.015625)"/>
       <path id="DejaVuSans-67" d="M 2906 1791 
Q 2906 2416 2648 2759 
Q 2391 3103 1925 3103 
Q 1463 3103 1205 2759 
Q 947 2416 947 1791 
Q 947 1169 1205 825 
Q 1463 481 1925 481 
Q 2391 481 2648 825 
Q 2906 1169 2906 1791 
z
M 3481 434 
Q 3481 -459 3084 -895 
Q 2688 -1331 1869 -1331 
Q 1566 -1331 1297 -1286 
Q 1028 -1241 775 -1147 
L 775 -588 
Q 1028 -725 1275 -790 
Q 1522 -856 1778 -856 
Q 2344 -856 2625 -561 
Q 2906 -266 2906 331 
L 2906 616 
Q 2728 306 2450 153 
Q 2172 0 1784 0 
Q 1141 0 747 490 
Q 353 981 353 1791 
Q 353 2603 747 3093 
Q 1141 3584 1784 3584 
Q 2172 3584 2450 3431 
Q 2728 3278 2906 2969 
L 2906 3500 
L 3481 3500 
L 3481 434 
z
" transform="scale(0.015625)"/>
       <path id="DejaVuSans-29" d="M 513 4856 
L 1013 4856 
Q 1481 4119 1714 3412 
Q 1947 2706 1947 2009 
Q 1947 1309 1714 600 
Q 1481 -109 1013 -844 
L 513 -844 
Q 928 -128 1133 580 
Q 1338 1288 1338 2009 
Q 1338 2731 1133 3434 
Q 928 4138 513 4856 
z
" transform="scale(0.015625)"/>
      </defs>
      <use xlink:href="#DejaVuSans-4d"/>
      <use xlink:href="#DejaVuSans-41" transform="translate(86.279297 0)"/>
      <use xlink:href="#DejaVuSans-45" transform="translate(154.6875 0)"/>
      <use xlink:href="#DejaVuSans-20" transform="translate(217.871094 0)"/>
      <use xlink:href="#DejaVuSans-28" transform="translate(249.658203 0)"/>
      <use xlink:href="#DejaVuSans-6d" transform="translate(288.671875 0)"/>
      <use xlink:href="#DejaVuSans-6d" transform="translate(386.083984 0)"/>
      <use xlink:href="#DejaVuSans-48" transform="translate(483.496094 0)"/>
      <use xlink:href="#DejaVuSans-67" transform="translate(558.691406 0)"/>
      <use xlink:href="#DejaVuSans-29" transform="translate(622.167969 0)"/>
     </g>
    </g>
   </g>
   <g id="LineCollection_1">
    <path d="M 70.626102 92.708863 
L 70.626102 36.207799 
" clip-path="url(#ped3c73dd22)" style="fill: none; stroke: #000000; stroke-width: 1.5"/>
    <path d="M 188.888635 107.177089 
L 188.888635 59.836099 
" clip-path="url(#ped3c73dd22)" style="fill: none; stroke: #000000; stroke-width: 1.5"/>
    <path d="M 307.151168 105.521124 
L 307.151168 50.332213 
" clip-path="url(#ped3c73dd22)" style="fill: none; stroke: #000000; stroke-width: 1.5"/>
   </g>
   <g id="line2d_14">
    <defs>
     <path id="m697e987efe" d="M 5 0 
L -5 -0 
" style="stroke: #000000"/>
    </defs>
    <g clip-path="url(#ped3c73dd22)">
     <use xlink:href="#m697e987efe" x="70.626102" y="92.708863" style="stroke: #000000"/>
     <use xlink:href="#m697e987efe" x="188.888635" y="107.177089" style="stroke: #000000"/>
     <use xlink:href="#m697e987efe" x="307.151168" y="105.521124" style="stroke: #000000"/>
    </g>
   </g>
   <g id="line2d_15">
    <g clip-path="url(#ped3c73dd22)">
     <use xlink:href="#m697e987efe" x="70.626102" y="36.207799" style="stroke: #000000"/>
     <use xlink:href="#m697e987efe" x="188.888635" y="59.836099" style="stroke: #000000"/>
     <use xlink:href="#m697e987efe" x="307.151168" y="50.332213" style="stroke: #000000"/>
    </g>
   </g>
   <g id="patch_6">
    <path d="M 42.53875 298.804404 
L 42.53875 23.077969 
" style="fill: none; stroke: #000000; stroke-width: 0.8; stroke-linejoin: miter; stroke-linecap: square"/>
   </g>
   <g id="patch_7">
    <path d="M 336.716801 298.804404 
L 336.716801 23.077969 
" style="fill: none; stroke: #000000; stroke-width: 0.8; stroke-linejoin: miter; stroke-linecap: square"/>
   </g>
   <g id="patch_8">
    <path d="M 42.53875 298.804404 
L 336.716801 298.804404 
" style="fill: none; stroke: #000000; stroke-width: 0.8; stroke-linejoin: miter; stroke-linecap: square"/>
   </g>
   <g id="patch_9">
    <path d="M 42.53875 23.077969 
L 336.716801 23.077969 
" style="fill: none; stroke: #000000; stroke-width: 0.8; stroke-linejoin: miter; stroke-linecap: square"/>
   </g>
   <g id="text_11">
    <!-- SBP - Mean Absolute Error -->
    <g transform="translate(92.678244 17.077969) scale(0.13 -0.13)">
     <defs>
      <path id="DejaVuSans-Bold-53" d="M 3834 4519 
L 3834 3531 
Q 3450 3703 3084 3790 
Q 2719 3878 2394 3878 
Q 1963 3878 1756 3759 
Q 1550 3641 1550 3391 
Q 1550 3203 1689 3098 
Q 1828 2994 2194 2919 
L 2706 2816 
Q 3484 2659 3812 2340 
Q 4141 2022 4141 1434 
Q 4141 663 3683 286 
Q 3225 -91 2284 -91 
Q 1841 -91 1394 -6 
Q 947 78 500 244 
L 500 1259 
Q 947 1022 1364 901 
Q 1781 781 2169 781 
Q 2563 781 2772 912 
Q 2981 1044 2981 1288 
Q 2981 1506 2839 1625 
Q 2697 1744 2272 1838 
L 1806 1941 
Q 1106 2091 782 2419 
Q 459 2747 459 3303 
Q 459 4000 909 4375 
Q 1359 4750 2203 4750 
Q 2588 4750 2994 4692 
Q 3400 4634 3834 4519 
z
" transform="scale(0.015625)"/>
      <path id="DejaVuSans-Bold-42" d="M 2456 2859 
Q 2741 2859 2887 2984 
Q 3034 3109 3034 3353 
Q 3034 3594 2887 3720 
Q 2741 3847 2456 3847 
L 1791 3847 
L 1791 2859 
L 2456 2859 
z
M 2497 819 
Q 2859 819 3042 972 
Q 3225 1125 3225 1434 
Q 3225 1738 3044 1889 
Q 2863 2041 2497 2041 
L 1791 2041 
L 1791 819 
L 2497 819 
z
M 3616 2497 
Q 4003 2384 4215 2081 
Q 4428 1778 4428 1338 
Q 4428 663 3972 331 
Q 3516 0 2584 0 
L 588 0 
L 588 4666 
L 2394 4666 
Q 3366 4666 3802 4372 
Q 4238 4078 4238 3431 
Q 4238 3091 4078 2852 
Q 3919 2613 3616 2497 
z
" transform="scale(0.015625)"/>
      <path id="DejaVuSans-Bold-50" d="M 588 4666 
L 2584 4666 
Q 3475 4666 3951 4270 
Q 4428 3875 4428 3144 
Q 4428 2409 3951 2014 
Q 3475 1619 2584 1619 
L 1791 1619 
L 1791 0 
L 588 0 
L 588 4666 
z
M 1791 3794 
L 1791 2491 
L 2456 2491 
Q 2806 2491 2997 2661 
Q 3188 2831 3188 3144 
Q 3188 3456 2997 3625 
Q 2806 3794 2456 3794 
L 1791 3794 
z
" transform="scale(0.015625)"/>
      <path id="DejaVuSans-Bold-20" transform="scale(0.015625)"/>
      <path id="DejaVuSans-Bold-2d" d="M 347 2297 
L 2309 2297 
L 2309 1388 
L 347 1388 
L 347 2297 
z
" transform="scale(0.015625)"/>
      <path id="DejaVuSans-Bold-4d" d="M 588 4666 
L 2119 4666 
L 3181 2169 
L 4250 4666 
L 5778 4666 
L 5778 0 
L 4641 0 
L 4641 3413 
L 3566 897 
L 2803 897 
L 1728 3413 
L 1728 0 
L 588 0 
L 588 4666 
z
" transform="scale(0.015625)"/>
      <path id="DejaVuSans-Bold-65" d="M 4031 1759 
L 4031 1441 
L 1416 1441 
Q 1456 1047 1700 850 
Q 1944 653 2381 653 
Q 2734 653 3104 758 
Q 3475 863 3866 1075 
L 3866 213 
Q 3469 63 3072 -14 
Q 2675 -91 2278 -91 
Q 1328 -91 801 392 
Q 275 875 275 1747 
Q 275 2603 792 3093 
Q 1309 3584 2216 3584 
Q 3041 3584 3536 3087 
Q 4031 2591 4031 1759 
z
M 2881 2131 
Q 2881 2450 2695 2645 
Q 2509 2841 2209 2841 
Q 1884 2841 1681 2658 
Q 1478 2475 1428 2131 
L 2881 2131 
z
" transform="scale(0.015625)"/>
      <path id="DejaVuSans-Bold-61" d="M 2106 1575 
Q 1756 1575 1579 1456 
Q 1403 1338 1403 1106 
Q 1403 894 1545 773 
Q 1688 653 1941 653 
Q 2256 653 2472 879 
Q 2688 1106 2688 1447 
L 2688 1575 
L 2106 1575 
z
M 3816 1997 
L 3816 0 
L 2688 0 
L 2688 519 
Q 2463 200 2181 54 
Q 1900 -91 1497 -91 
Q 953 -91 614 226 
Q 275 544 275 1050 
Q 275 1666 698 1953 
Q 1122 2241 2028 2241 
L 2688 2241 
L 2688 2328 
Q 2688 2594 2478 2717 
Q 2269 2841 1825 2841 
Q 1466 2841 1156 2769 
Q 847 2697 581 2553 
L 581 3406 
Q 941 3494 1303 3539 
Q 1666 3584 2028 3584 
Q 2975 3584 3395 3211 
Q 3816 2838 3816 1997 
z
" transform="scale(0.015625)"/>
      <path id="DejaVuSans-Bold-6e" d="M 4056 2131 
L 4056 0 
L 2931 0 
L 2931 347 
L 2931 1631 
Q 2931 2084 2911 2256 
Q 2891 2428 2841 2509 
Q 2775 2619 2662 2680 
Q 2550 2741 2406 2741 
Q 2056 2741 1856 2470 
Q 1656 2200 1656 1722 
L 1656 0 
L 538 0 
L 538 3500 
L 1656 3500 
L 1656 2988 
Q 1909 3294 2193 3439 
Q 2478 3584 2822 3584 
Q 3428 3584 3742 3212 
Q 4056 2841 4056 2131 
z
" transform="scale(0.015625)"/>
      <path id="DejaVuSans-Bold-41" d="M 3419 850 
L 1538 850 
L 1241 0 
L 31 0 
L 1759 4666 
L 3194 4666 
L 4922 0 
L 3713 0 
L 3419 850 
z
M 1838 1716 
L 3116 1716 
L 2478 3572 
L 1838 1716 
z
" transform="scale(0.015625)"/>
      <path id="DejaVuSans-Bold-62" d="M 2400 722 
Q 2759 722 2948 984 
Q 3138 1247 3138 1747 
Q 3138 2247 2948 2509 
Q 2759 2772 2400 2772 
Q 2041 2772 1848 2508 
Q 1656 2244 1656 1747 
Q 1656 1250 1848 986 
Q 2041 722 2400 722 
z
M 1656 2988 
Q 1888 3294 2169 3439 
Q 2450 3584 2816 3584 
Q 3463 3584 3878 3070 
Q 4294 2556 4294 1747 
Q 4294 938 3878 423 
Q 3463 -91 2816 -91 
Q 2450 -91 2169 54 
Q 1888 200 1656 506 
L 1656 0 
L 538 0 
L 538 4863 
L 1656 4863 
L 1656 2988 
z
" transform="scale(0.015625)"/>
      <path id="DejaVuSans-Bold-73" d="M 3272 3391 
L 3272 2541 
Q 2913 2691 2578 2766 
Q 2244 2841 1947 2841 
Q 1628 2841 1473 2761 
Q 1319 2681 1319 2516 
Q 1319 2381 1436 2309 
Q 1553 2238 1856 2203 
L 2053 2175 
Q 2913 2066 3209 1816 
Q 3506 1566 3506 1031 
Q 3506 472 3093 190 
Q 2681 -91 1863 -91 
Q 1516 -91 1145 -36 
Q 775 19 384 128 
L 384 978 
Q 719 816 1070 734 
Q 1422 653 1784 653 
Q 2113 653 2278 743 
Q 2444 834 2444 1013 
Q 2444 1163 2330 1236 
Q 2216 1309 1875 1350 
L 1678 1375 
Q 931 1469 631 1722 
Q 331 1975 331 2491 
Q 331 3047 712 3315 
Q 1094 3584 1881 3584 
Q 2191 3584 2531 3537 
Q 2872 3491 3272 3391 
z
" transform="scale(0.015625)"/>
      <path id="DejaVuSans-Bold-6f" d="M 2203 2784 
Q 1831 2784 1636 2517 
Q 1441 2250 1441 1747 
Q 1441 1244 1636 976 
Q 1831 709 2203 709 
Q 2569 709 2762 976 
Q 2956 1244 2956 1747 
Q 2956 2250 2762 2517 
Q 2569 2784 2203 2784 
z
M 2203 3584 
Q 3106 3584 3614 3096 
Q 4122 2609 4122 1747 
Q 4122 884 3614 396 
Q 3106 -91 2203 -91 
Q 1297 -91 786 396 
Q 275 884 275 1747 
Q 275 2609 786 3096 
Q 1297 3584 2203 3584 
z
" transform="scale(0.015625)"/>
      <path id="DejaVuSans-Bold-6c" d="M 538 4863 
L 1656 4863 
L 1656 0 
L 538 0 
L 538 4863 
z
" transform="scale(0.015625)"/>
      <path id="DejaVuSans-Bold-75" d="M 500 1363 
L 500 3500 
L 1625 3500 
L 1625 3150 
Q 1625 2866 1622 2436 
Q 1619 2006 1619 1863 
Q 1619 1441 1641 1255 
Q 1663 1069 1716 984 
Q 1784 875 1895 815 
Q 2006 756 2150 756 
Q 2500 756 2700 1025 
Q 2900 1294 2900 1772 
L 2900 3500 
L 4019 3500 
L 4019 0 
L 2900 0 
L 2900 506 
Q 2647 200 2364 54 
Q 2081 -91 1741 -91 
Q 1134 -91 817 281 
Q 500 653 500 1363 
z
" transform="scale(0.015625)"/>
      <path id="DejaVuSans-Bold-74" d="M 1759 4494 
L 1759 3500 
L 2913 3500 
L 2913 2700 
L 1759 2700 
L 1759 1216 
Q 1759 972 1856 886 
Q 1953 800 2241 800 
L 2816 800 
L 2816 0 
L 1856 0 
Q 1194 0 917 276 
Q 641 553 641 1216 
L 641 2700 
L 84 2700 
L 84 3500 
L 641 3500 
L 641 4494 
L 1759 4494 
z
" transform="scale(0.015625)"/>
      <path id="DejaVuSans-Bold-45" d="M 588 4666 
L 3834 4666 
L 3834 3756 
L 1791 3756 
L 1791 2888 
L 3713 2888 
L 3713 1978 
L 1791 1978 
L 1791 909 
L 3903 909 
L 3903 0 
L 588 0 
L 588 4666 
z
" transform="scale(0.015625)"/>
      <path id="DejaVuSans-Bold-72" d="M 3138 2547 
Q 2991 2616 2845 2648 
Q 2700 2681 2553 2681 
Q 2122 2681 1889 2404 
Q 1656 2128 1656 1613 
L 1656 0 
L 538 0 
L 538 3500 
L 1656 3500 
L 1656 2925 
Q 1872 3269 2151 3426 
Q 2431 3584 2822 3584 
Q 2878 3584 2943 3579 
Q 3009 3575 3134 3559 
L 3138 2547 
z
" transform="scale(0.015625)"/>
     </defs>
     <use xlink:href="#DejaVuSans-Bold-53"/>
     <use xlink:href="#DejaVuSans-Bold-42" transform="translate(72.021484 0)"/>
     <use xlink:href="#DejaVuSans-Bold-50" transform="translate(148.242188 0)"/>
     <use xlink:href="#DejaVuSans-Bold-20" transform="translate(221.533203 0)"/>
     <use xlink:href="#DejaVuSans-Bold-2d" transform="translate(256.347656 0)"/>
     <use xlink:href="#DejaVuSans-Bold-20" transform="translate(297.851562 0)"/>
     <use xlink:href="#DejaVuSans-Bold-4d" transform="translate(332.666016 0)"/>
     <use xlink:href="#DejaVuSans-Bold-65" transform="translate(432.177734 0)"/>
     <use xlink:href="#DejaVuSans-Bold-61" transform="translate(500 0)"/>
     <use xlink:href="#DejaVuSans-Bold-6e" transform="translate(567.480469 0)"/>
     <use xlink:href="#DejaVuSans-Bold-20" transform="translate(638.671875 0)"/>
     <use xlink:href="#DejaVuSans-Bold-41" transform="translate(673.486328 0)"/>
     <use xlink:href="#DejaVuSans-Bold-62" transform="translate(750.878906 0)"/>
     <use xlink:href="#DejaVuSans-Bold-73" transform="translate(822.460938 0)"/>
     <use xlink:href="#DejaVuSans-Bold-6f" transform="translate(881.982422 0)"/>
     <use xlink:href="#DejaVuSans-Bold-6c" transform="translate(950.683594 0)"/>
     <use xlink:href="#DejaVuSans-Bold-75" transform="translate(984.960938 0)"/>
     <use xlink:href="#DejaVuSans-Bold-74" transform="translate(1056.152344 0)"/>
     <use xlink:href="#DejaVuSans-Bold-65" transform="translate(1103.955078 0)"/>
     <use xlink:href="#DejaVuSans-Bold-20" transform="translate(1171.777344 0)"/>
     <use xlink:href="#DejaVuSans-Bold-45" transform="translate(1206.591797 0)"/>
     <use xlink:href="#DejaVuSans-Bold-72" transform="translate(1274.902344 0)"/>
     <use xlink:href="#DejaVuSans-Bold-72" transform="translate(1324.21875 0)"/>
     <use xlink:href="#DejaVuSans-Bold-6f" transform="translate(1373.535156 0)"/>
     <use xlink:href="#DejaVuSans-Bold-72" transform="translate(1442.236328 0)"/>
    </g>
   </g>
   <g id="legend_1">
    <g id="patch_10">
     <path d="M 275.929301 45.756094 
L 329.716801 45.756094 
Q 331.716801 45.756094 331.716801 43.756094 
L 331.716801 30.077969 
Q 331.716801 28.077969 329.716801 28.077969 
L 275.929301 28.077969 
Q 273.929301 28.077969 273.929301 30.077969 
L 273.929301 43.756094 
Q 273.929301 45.756094 275.929301 45.756094 
z
" style="fill: #ffffff; opacity: 0.8; stroke: #cccccc; stroke-linejoin: miter"/>
    </g>
    <g id="patch_11">
     <path d="M 277.929301 39.676406 
L 297.929301 39.676406 
L 297.929301 32.676406 
L 277.929301 32.676406 
z
" style="fill: #1f77b4; opacity: 0.8"/>
    </g>
    <g id="text_12">
     <!-- MAE -->
     <g transform="translate(305.929301 39.676406) scale(0.1 -0.1)">
      <use xlink:href="#DejaVuSans-4d"/>
      <use xlink:href="#DejaVuSans-41" transform="translate(86.279297 0)"/>
      <use xlink:href="#DejaVuSans-45" transform="translate(154.6875 0)"/>
     </g>
    </g>
   </g>
  </g>
  <g id="axes_2">
   <g id="patch_12">
    <path d="M 407.029725 298.804404 
L 701.207775 298.804404 
L 701.207775 23.077969 
L 407.029725 23.077969 
z
" style="fill: #ffffff"/>
   </g>
   <g id="patch_13">
    <path d="M 420.401454 298.804404 
L 450.116409 298.804404 
L 450.116409 79.048884 
L 420.401454 79.048884 
z
" clip-path="url(#p2b163357d8)" style="fill: #ffa500; opacity: 0.8"/>
   </g>
   <g id="patch_14">
    <path d="M 539.261273 298.804404 
L 568.976227 298.804404 
L 568.976227 109.238513 
L 539.261273 109.238513 
z
" clip-path="url(#p2b163357d8)" style="fill: #ffa500; opacity: 0.8"/>
   </g>
   <g id="patch_15">
    <path d="M 658.121091 298.804404 
L 687.836046 298.804404 
L 687.836046 105.037004 
L 658.121091 105.037004 
z
" clip-path="url(#p2b163357d8)" style="fill: #ffa500; opacity: 0.8"/>
   </g>
   <g id="matplotlib.axis_3">
    <g id="xtick_4">
     <g id="line2d_16">
      <g>
       <use xlink:href="#m8208e0268c" x="435.258931" y="298.804404" style="stroke: #000000; stroke-width: 0.8"/>
      </g>
     </g>
     <g id="text_13">
      <!-- RealTimeBP -->
      <g transform="translate(377.812545 328.392417) rotate(-15) scale(0.1 -0.1)">
       <use xlink:href="#DejaVuSans-52"/>
       <use xlink:href="#DejaVuSans-65" transform="translate(64.982422 0)"/>
       <use xlink:href="#DejaVuSans-61" transform="translate(126.505859 0)"/>
       <use xlink:href="#DejaVuSans-6c" transform="translate(187.785156 0)"/>
       <use xlink:href="#DejaVuSans-54" transform="translate(215.568359 0)"/>
       <use xlink:href="#DejaVuSans-69" transform="translate(273.527344 0)"/>
       <use xlink:href="#DejaVuSans-6d" transform="translate(301.310547 0)"/>
       <use xlink:href="#DejaVuSans-65" transform="translate(398.722656 0)"/>
       <use xlink:href="#DejaVuSans-42" transform="translate(460.246094 0)"/>
       <use xlink:href="#DejaVuSans-50" transform="translate(528.849609 0)"/>
      </g>
     </g>
    </g>
    <g id="xtick_5">
     <g id="line2d_17">
      <g>
       <use xlink:href="#m8208e0268c" x="554.11875" y="298.804404" style="stroke: #000000; stroke-width: 0.8"/>
      </g>
     </g>
     <g id="text_14">
      <!-- SinBP_D -->
      <g transform="translate(513.85272 323.769666) rotate(-15) scale(0.1 -0.1)">
       <use xlink:href="#DejaVuSans-53"/>
       <use xlink:href="#DejaVuSans-69" transform="translate(63.476562 0)"/>
       <use xlink:href="#DejaVuSans-6e" transform="translate(91.259766 0)"/>
       <use xlink:href="#DejaVuSans-42" transform="translate(154.638672 0)"/>
       <use xlink:href="#DejaVuSans-50" transform="translate(223.242188 0)"/>
       <use xlink:href="#DejaVuSans-5f" transform="translate(283.544922 0)"/>
       <use xlink:href="#DejaVuSans-44" transform="translate(333.544922 0)"/>
      </g>
     </g>
    </g>
    <g id="xtick_6">
     <g id="line2d_18">
      <g>
       <use xlink:href="#m8208e0268c" x="672.978569" y="298.804404" style="stroke: #000000; stroke-width: 0.8"/>
      </g>
     </g>
     <g id="text_15">
      <!-- SinBP_M -->
      <g transform="translate(631.816039 324.009883) rotate(-15) scale(0.1 -0.1)">
       <use xlink:href="#DejaVuSans-53"/>
       <use xlink:href="#DejaVuSans-69" transform="translate(63.476562 0)"/>
       <use xlink:href="#DejaVuSans-6e" transform="translate(91.259766 0)"/>
       <use xlink:href="#DejaVuSans-42" transform="translate(154.638672 0)"/>
       <use xlink:href="#DejaVuSans-50" transform="translate(223.242188 0)"/>
       <use xlink:href="#DejaVuSans-5f" transform="translate(283.544922 0)"/>
       <use xlink:href="#DejaVuSans-4d" transform="translate(333.544922 0)"/>
      </g>
     </g>
    </g>
    <g id="text_16">
     <!-- Method -->
     <g transform="translate(531.615 343.519366) scale(0.12 -0.12)">
      <use xlink:href="#DejaVuSans-4d"/>
      <use xlink:href="#DejaVuSans-65" transform="translate(86.279297 0)"/>
      <use xlink:href="#DejaVuSans-74" transform="translate(147.802734 0)"/>
      <use xlink:href="#DejaVuSans-68" transform="translate(187.011719 0)"/>
      <use xlink:href="#DejaVuSans-6f" transform="translate(250.390625 0)"/>
      <use xlink:href="#DejaVuSans-64" transform="translate(311.572266 0)"/>
     </g>
    </g>
   </g>
   <g id="matplotlib.axis_4">
    <g id="ytick_6">
     <g id="line2d_19">
      <path d="M 407.029725 298.804404 
L 701.207775 298.804404 
" clip-path="url(#p2b163357d8)" style="fill: none; stroke-dasharray: 2.96,1.28; stroke-dashoffset: 0; stroke: #b0b0b0; stroke-opacity: 0.3; stroke-width: 0.8"/>
     </g>
     <g id="line2d_20">
      <g>
       <use xlink:href="#m6fbfb7d7c6" x="407.029725" y="298.804404" style="stroke: #000000; stroke-width: 0.8"/>
      </g>
     </g>
     <g id="text_17">
      <!-- 0 -->
      <g transform="translate(393.667225 302.603623) scale(0.1 -0.1)">
       <use xlink:href="#DejaVuSans-30"/>
      </g>
     </g>
    </g>
    <g id="ytick_7">
     <g id="line2d_21">
      <path d="M 407.029725 259.584934 
L 701.207775 259.584934 
" clip-path="url(#p2b163357d8)" style="fill: none; stroke-dasharray: 2.96,1.28; stroke-dashoffset: 0; stroke: #b0b0b0; stroke-opacity: 0.3; stroke-width: 0.8"/>
     </g>
     <g id="line2d_22">
      <g>
       <use xlink:href="#m6fbfb7d7c6" x="407.029725" y="259.584934" style="stroke: #000000; stroke-width: 0.8"/>
      </g>
     </g>
     <g id="text_18">
      <!-- 5 -->
      <g transform="translate(393.667225 263.384152) scale(0.1 -0.1)">
       <use xlink:href="#DejaVuSans-35"/>
      </g>
     </g>
    </g>
    <g id="ytick_8">
     <g id="line2d_23">
      <path d="M 407.029725 220.365463 
L 701.207775 220.365463 
" clip-path="url(#p2b163357d8)" style="fill: none; stroke-dasharray: 2.96,1.28; stroke-dashoffset: 0; stroke: #b0b0b0; stroke-opacity: 0.3; stroke-width: 0.8"/>
     </g>
     <g id="line2d_24">
      <g>
       <use xlink:href="#m6fbfb7d7c6" x="407.029725" y="220.365463" style="stroke: #000000; stroke-width: 0.8"/>
      </g>
     </g>
     <g id="text_19">
      <!-- 10 -->
      <g transform="translate(387.304725 224.164681) scale(0.1 -0.1)">
       <use xlink:href="#DejaVuSans-31"/>
       <use xlink:href="#DejaVuSans-30" transform="translate(63.623047 0)"/>
      </g>
     </g>
    </g>
    <g id="ytick_9">
     <g id="line2d_25">
      <path d="M 407.029725 181.145992 
L 701.207775 181.145992 
" clip-path="url(#p2b163357d8)" style="fill: none; stroke-dasharray: 2.96,1.28; stroke-dashoffset: 0; stroke: #b0b0b0; stroke-opacity: 0.3; stroke-width: 0.8"/>
     </g>
     <g id="line2d_26">
      <g>
       <use xlink:href="#m6fbfb7d7c6" x="407.029725" y="181.145992" style="stroke: #000000; stroke-width: 0.8"/>
      </g>
     </g>
     <g id="text_20">
      <!-- 15 -->
      <g transform="translate(387.304725 184.945211) scale(0.1 -0.1)">
       <use xlink:href="#DejaVuSans-31"/>
       <use xlink:href="#DejaVuSans-35" transform="translate(63.623047 0)"/>
      </g>
     </g>
    </g>
    <g id="ytick_10">
     <g id="line2d_27">
      <path d="M 407.029725 141.926521 
L 701.207775 141.926521 
" clip-path="url(#p2b163357d8)" style="fill: none; stroke-dasharray: 2.96,1.28; stroke-dashoffset: 0; stroke: #b0b0b0; stroke-opacity: 0.3; stroke-width: 0.8"/>
     </g>
     <g id="line2d_28">
      <g>
       <use xlink:href="#m6fbfb7d7c6" x="407.029725" y="141.926521" style="stroke: #000000; stroke-width: 0.8"/>
      </g>
     </g>
     <g id="text_21">
      <!-- 20 -->
      <g transform="translate(387.304725 145.72574) scale(0.1 -0.1)">
       <use xlink:href="#DejaVuSans-32"/>
       <use xlink:href="#DejaVuSans-30" transform="translate(63.623047 0)"/>
      </g>
     </g>
    </g>
    <g id="ytick_11">
     <g id="line2d_29">
      <path d="M 407.029725 102.70705 
L 701.207775 102.70705 
" clip-path="url(#p2b163357d8)" style="fill: none; stroke-dasharray: 2.96,1.28; stroke-dashoffset: 0; stroke: #b0b0b0; stroke-opacity: 0.3; stroke-width: 0.8"/>
     </g>
     <g id="line2d_30">
      <g>
       <use xlink:href="#m6fbfb7d7c6" x="407.029725" y="102.70705" style="stroke: #000000; stroke-width: 0.8"/>
      </g>
     </g>
     <g id="text_22">
      <!-- 25 -->
      <g transform="translate(387.304725 106.506269) scale(0.1 -0.1)">
       <use xlink:href="#DejaVuSans-32"/>
       <use xlink:href="#DejaVuSans-35" transform="translate(63.623047 0)"/>
      </g>
     </g>
    </g>
    <g id="ytick_12">
     <g id="line2d_31">
      <path d="M 407.029725 63.487579 
L 701.207775 63.487579 
" clip-path="url(#p2b163357d8)" style="fill: none; stroke-dasharray: 2.96,1.28; stroke-dashoffset: 0; stroke: #b0b0b0; stroke-opacity: 0.3; stroke-width: 0.8"/>
     </g>
     <g id="line2d_32">
      <g>
       <use xlink:href="#m6fbfb7d7c6" x="407.029725" y="63.487579" style="stroke: #000000; stroke-width: 0.8"/>
      </g>
     </g>
     <g id="text_23">
      <!-- 30 -->
      <g transform="translate(387.304725 67.286798) scale(0.1 -0.1)">
       <defs>
        <path id="DejaVuSans-33" d="M 2597 2516 
Q 3050 2419 3304 2112 
Q 3559 1806 3559 1356 
Q 3559 666 3084 287 
Q 2609 -91 1734 -91 
Q 1441 -91 1130 -33 
Q 819 25 488 141 
L 488 750 
Q 750 597 1062 519 
Q 1375 441 1716 441 
Q 2309 441 2620 675 
Q 2931 909 2931 1356 
Q 2931 1769 2642 2001 
Q 2353 2234 1838 2234 
L 1294 2234 
L 1294 2753 
L 1863 2753 
Q 2328 2753 2575 2939 
Q 2822 3125 2822 3475 
Q 2822 3834 2567 4026 
Q 2313 4219 1838 4219 
Q 1578 4219 1281 4162 
Q 984 4106 628 3988 
L 628 4550 
Q 988 4650 1302 4700 
Q 1616 4750 1894 4750 
Q 2613 4750 3031 4423 
Q 3450 4097 3450 3541 
Q 3450 3153 3228 2886 
Q 3006 2619 2597 2516 
z
" transform="scale(0.015625)"/>
       </defs>
       <use xlink:href="#DejaVuSans-33"/>
       <use xlink:href="#DejaVuSans-30" transform="translate(63.623047 0)"/>
      </g>
     </g>
    </g>
    <g id="ytick_13">
     <g id="line2d_33">
      <path d="M 407.029725 24.268109 
L 701.207775 24.268109 
" clip-path="url(#p2b163357d8)" style="fill: none; stroke-dasharray: 2.96,1.28; stroke-dashoffset: 0; stroke: #b0b0b0; stroke-opacity: 0.3; stroke-width: 0.8"/>
     </g>
     <g id="line2d_34">
      <g>
       <use xlink:href="#m6fbfb7d7c6" x="407.029725" y="24.268109" style="stroke: #000000; stroke-width: 0.8"/>
      </g>
     </g>
     <g id="text_24">
      <!-- 35 -->
      <g transform="translate(387.304725 28.067327) scale(0.1 -0.1)">
       <use xlink:href="#DejaVuSans-33"/>
       <use xlink:href="#DejaVuSans-35" transform="translate(63.623047 0)"/>
      </g>
     </g>
    </g>
    <g id="text_25">
     <!-- RMSE (mmHg) -->
     <g transform="translate(380.8091 204.486187) rotate(-90) scale(0.12 -0.12)">
      <use xlink:href="#DejaVuSans-52"/>
      <use xlink:href="#DejaVuSans-4d" transform="translate(69.482422 0)"/>
      <use xlink:href="#DejaVuSans-53" transform="translate(155.761719 0)"/>
      <use xlink:href="#DejaVuSans-45" transform="translate(219.238281 0)"/>
      <use xlink:href="#DejaVuSans-20" transform="translate(282.421875 0)"/>
      <use xlink:href="#DejaVuSans-28" transform="translate(314.208984 0)"/>
      <use xlink:href="#DejaVuSans-6d" transform="translate(353.222656 0)"/>
      <use xlink:href="#DejaVuSans-6d" transform="translate(450.634766 0)"/>
      <use xlink:href="#DejaVuSans-48" transform="translate(548.046875 0)"/>
      <use xlink:href="#DejaVuSans-67" transform="translate(623.242188 0)"/>
      <use xlink:href="#DejaVuSans-29" transform="translate(686.71875 0)"/>
     </g>
    </g>
   </g>
   <g id="LineCollection_2">
    <path d="M 435.258931 121.889969 
L 435.258931 36.207799 
" clip-path="url(#p2b163357d8)" style="fill: none; stroke: #000000; stroke-width: 1.5"/>
    <path d="M 554.11875 128.54338 
L 554.11875 89.933646 
" clip-path="url(#p2b163357d8)" style="fill: none; stroke: #000000; stroke-width: 1.5"/>
    <path d="M 672.978569 123.679297 
L 672.978569 86.394711 
" clip-path="url(#p2b163357d8)" style="fill: none; stroke: #000000; stroke-width: 1.5"/>
   </g>
   <g id="line2d_35">
    <g clip-path="url(#p2b163357d8)">
     <use xlink:href="#m697e987efe" x="435.258931" y="121.889969" style="stroke: #000000"/>
     <use xlink:href="#m697e987efe" x="554.11875" y="128.54338" style="stroke: #000000"/>
     <use xlink:href="#m697e987efe" x="672.978569" y="123.679297" style="stroke: #000000"/>
    </g>
   </g>
   <g id="line2d_36">
    <g clip-path="url(#p2b163357d8)">
     <use xlink:href="#m697e987efe" x="435.258931" y="36.207799" style="stroke: #000000"/>
     <use xlink:href="#m697e987efe" x="554.11875" y="89.933646" style="stroke: #000000"/>
     <use xlink:href="#m697e987efe" x="672.978569" y="86.394711" style="stroke: #000000"/>
    </g>
   </g>
   <g id="patch_16">
    <path d="M 407.029725 298.804404 
L 407.029725 23.077969 
" style="fill: none; stroke: #000000; stroke-width: 0.8; stroke-linejoin: miter; stroke-linecap: square"/>
   </g>
   <g id="patch_17">
    <path d="M 701.207775 298.804404 
L 701.207775 23.077969 
" style="fill: none; stroke: #000000; stroke-width: 0.8; stroke-linejoin: miter; stroke-linecap: square"/>
   </g>
   <g id="patch_18">
    <path d="M 407.029725 298.804404 
L 701.207775 298.804404 
" style="fill: none; stroke: #000000; stroke-width: 0.8; stroke-linejoin: miter; stroke-linecap: square"/>
   </g>
   <g id="patch_19">
    <path d="M 407.029725 23.077969 
L 701.207775 23.077969 
" style="fill: none; stroke: #000000; stroke-width: 0.8; stroke-linejoin: miter; stroke-linecap: square"/>
   </g>
   <g id="text_26">
    <!-- SBP - Root Mean Squared Error -->
    <g transform="translate(439.6375 17.077969) scale(0.13 -0.13)">
     <defs>
      <path id="DejaVuSans-Bold-52" d="M 2297 2597 
Q 2675 2597 2839 2737 
Q 3003 2878 3003 3200 
Q 3003 3519 2839 3656 
Q 2675 3794 2297 3794 
L 1791 3794 
L 1791 2597 
L 2297 2597 
z
M 1791 1766 
L 1791 0 
L 588 0 
L 588 4666 
L 2425 4666 
Q 3347 4666 3776 4356 
Q 4206 4047 4206 3378 
Q 4206 2916 3982 2619 
Q 3759 2322 3309 2181 
Q 3556 2125 3751 1926 
Q 3947 1728 4147 1325 
L 4800 0 
L 3519 0 
L 2950 1159 
Q 2778 1509 2601 1637 
Q 2425 1766 2131 1766 
L 1791 1766 
z
" transform="scale(0.015625)"/>
      <path id="DejaVuSans-Bold-71" d="M 2181 2772 
Q 1825 2772 1636 2509 
Q 1447 2247 1447 1747 
Q 1447 1247 1636 984 
Q 1825 722 2181 722 
Q 2541 722 2730 984 
Q 2919 1247 2919 1747 
Q 2919 2247 2730 2509 
Q 2541 2772 2181 2772 
z
M 2919 506 
Q 2688 197 2409 53 
Q 2131 -91 1766 -91 
Q 1119 -91 703 423 
Q 288 938 288 1747 
Q 288 2556 703 3067 
Q 1119 3578 1766 3578 
Q 2131 3578 2409 3434 
Q 2688 3291 2919 2981 
L 2919 3500 
L 4044 3500 
L 4044 -1331 
L 2919 -1331 
L 2919 506 
z
" transform="scale(0.015625)"/>
      <path id="DejaVuSans-Bold-64" d="M 2919 2988 
L 2919 4863 
L 4044 4863 
L 4044 0 
L 2919 0 
L 2919 506 
Q 2688 197 2409 53 
Q 2131 -91 1766 -91 
Q 1119 -91 703 423 
Q 288 938 288 1747 
Q 288 2556 703 3070 
Q 1119 3584 1766 3584 
Q 2128 3584 2408 3439 
Q 2688 3294 2919 2988 
z
M 2181 722 
Q 2541 722 2730 984 
Q 2919 1247 2919 1747 
Q 2919 2247 2730 2509 
Q 2541 2772 2181 2772 
Q 1825 2772 1636 2509 
Q 1447 2247 1447 1747 
Q 1447 1247 1636 984 
Q 1825 722 2181 722 
z
" transform="scale(0.015625)"/>
     </defs>
     <use xlink:href="#DejaVuSans-Bold-53"/>
     <use xlink:href="#DejaVuSans-Bold-42" transform="translate(72.021484 0)"/>
     <use xlink:href="#DejaVuSans-Bold-50" transform="translate(148.242188 0)"/>
     <use xlink:href="#DejaVuSans-Bold-20" transform="translate(221.533203 0)"/>
     <use xlink:href="#DejaVuSans-Bold-2d" transform="translate(256.347656 0)"/>
     <use xlink:href="#DejaVuSans-Bold-20" transform="translate(297.851562 0)"/>
     <use xlink:href="#DejaVuSans-Bold-52" transform="translate(332.666016 0)"/>
     <use xlink:href="#DejaVuSans-Bold-6f" transform="translate(409.667969 0)"/>
     <use xlink:href="#DejaVuSans-Bold-6f" transform="translate(478.369141 0)"/>
     <use xlink:href="#DejaVuSans-Bold-74" transform="translate(547.070312 0)"/>
     <use xlink:href="#DejaVuSans-Bold-20" transform="translate(594.873047 0)"/>
     <use xlink:href="#DejaVuSans-Bold-4d" transform="translate(629.6875 0)"/>
     <use xlink:href="#DejaVuSans-Bold-65" transform="translate(729.199219 0)"/>
     <use xlink:href="#DejaVuSans-Bold-61" transform="translate(797.021484 0)"/>
     <use xlink:href="#DejaVuSans-Bold-6e" transform="translate(864.501953 0)"/>
     <use xlink:href="#DejaVuSans-Bold-20" transform="translate(935.693359 0)"/>
     <use xlink:href="#DejaVuSans-Bold-53" transform="translate(970.507812 0)"/>
     <use xlink:href="#DejaVuSans-Bold-71" transform="translate(1042.529297 0)"/>
     <use xlink:href="#DejaVuSans-Bold-75" transform="translate(1114.111328 0)"/>
     <use xlink:href="#DejaVuSans-Bold-61" transform="translate(1185.302734 0)"/>
     <use xlink:href="#DejaVuSans-Bold-72" transform="translate(1252.783203 0)"/>
     <use xlink:href="#DejaVuSans-Bold-65" transform="translate(1302.099609 0)"/>
     <use xlink:href="#DejaVuSans-Bold-64" transform="translate(1369.921875 0)"/>
     <use xlink:href="#DejaVuSans-Bold-20" transform="translate(1441.503906 0)"/>
     <use xlink:href="#DejaVuSans-Bold-45" transform="translate(1476.318359 0)"/>
     <use xlink:href="#DejaVuSans-Bold-72" transform="translate(1544.628906 0)"/>
     <use xlink:href="#DejaVuSans-Bold-72" transform="translate(1593.945312 0)"/>
     <use xlink:href="#DejaVuSans-Bold-6f" transform="translate(1643.261719 0)"/>
     <use xlink:href="#DejaVuSans-Bold-72" transform="translate(1711.962891 0)"/>
    </g>
   </g>
   <g id="legend_2">
    <g id="patch_20">
     <path d="M 633.964025 45.756094 
L 694.207775 45.756094 
Q 696.207775 45.756094 696.207775 43.756094 
L 696.207775 30.077969 
Q 696.207775 28.077969 694.207775 28.077969 
L 633.964025 28.077969 
Q 631.964025 28.077969 631.964025 30.077969 
L 631.964025 43.756094 
Q 631.964025 45.756094 633.964025 45.756094 
z
" style="fill: #ffffff; opacity: 0.8; stroke: #cccccc; stroke-linejoin: miter"/>
    </g>
    <g id="patch_21">
     <path d="M 635.964025 39.676406 
L 655.964025 39.676406 
L 655.964025 32.676406 
L 635.964025 32.676406 
z
" style="fill: #ffa500; opacity: 0.8"/>
    </g>
    <g id="text_27">
     <!-- RMSE -->
     <g transform="translate(663.964025 39.676406) scale(0.1 -0.1)">
      <use xlink:href="#DejaVuSans-52"/>
      <use xlink:href="#DejaVuSans-4d" transform="translate(69.482422 0)"/>
      <use xlink:href="#DejaVuSans-53" transform="translate(155.761719 0)"/>
      <use xlink:href="#DejaVuSans-45" transform="translate(219.238281 0)"/>
     </g>
    </g>
   </g>
  </g>
  <g id="axes_3">
   <g id="patch_22">
    <path d="M 771.520699 298.804404 
L 1065.69875 298.804404 
L 1065.69875 23.077969 
L 771.520699 23.077969 
z
" style="fill: #ffffff"/>
   </g>
   <g id="patch_23">
    <path d="M 786.303516 298.804404 
L 815.869149 298.804404 
L 815.869149 53.591361 
L 786.303516 53.591361 
z
" clip-path="url(#p5601c5c8d5)" style="fill: #008000; opacity: 0.8"/>
   </g>
   <g id="patch_24">
    <path d="M 904.566049 298.804404 
L 934.131682 298.804404 
L 934.131682 72.558 
L 904.566049 72.558 
z
" clip-path="url(#p5601c5c8d5)" style="fill: #008000; opacity: 0.8"/>
   </g>
   <g id="patch_25">
    <path d="M 1022.828582 298.804404 
L 1052.394215 298.804404 
L 1052.394215 65.917512 
L 1022.828582 65.917512 
z
" clip-path="url(#p5601c5c8d5)" style="fill: #008000; opacity: 0.8"/>
   </g>
   <g id="matplotlib.axis_5">
    <g id="xtick_7">
     <g id="line2d_37">
      <g>
       <use xlink:href="#m8208e0268c" x="771.520699" y="298.804404" style="stroke: #000000; stroke-width: 0.8"/>
      </g>
     </g>
     <g id="text_28">
      <!-- RealTimeBP -->
      <g transform="translate(714.074313 328.392417) rotate(-15) scale(0.1 -0.1)">
       <use xlink:href="#DejaVuSans-52"/>
       <use xlink:href="#DejaVuSans-65" transform="translate(64.982422 0)"/>
       <use xlink:href="#DejaVuSans-61" transform="translate(126.505859 0)"/>
       <use xlink:href="#DejaVuSans-6c" transform="translate(187.785156 0)"/>
       <use xlink:href="#DejaVuSans-54" transform="translate(215.568359 0)"/>
       <use xlink:href="#DejaVuSans-69" transform="translate(273.527344 0)"/>
       <use xlink:href="#DejaVuSans-6d" transform="translate(301.310547 0)"/>
       <use xlink:href="#DejaVuSans-65" transform="translate(398.722656 0)"/>
       <use xlink:href="#DejaVuSans-42" transform="translate(460.246094 0)"/>
       <use xlink:href="#DejaVuSans-50" transform="translate(528.849609 0)"/>
      </g>
     </g>
    </g>
    <g id="xtick_8">
     <g id="line2d_38">
      <g>
       <use xlink:href="#m8208e0268c" x="889.783232" y="298.804404" style="stroke: #000000; stroke-width: 0.8"/>
      </g>
     </g>
     <g id="text_29">
      <!-- SinBP_D -->
      <g transform="translate(849.517202 323.769666) rotate(-15) scale(0.1 -0.1)">
       <use xlink:href="#DejaVuSans-53"/>
       <use xlink:href="#DejaVuSans-69" transform="translate(63.476562 0)"/>
       <use xlink:href="#DejaVuSans-6e" transform="translate(91.259766 0)"/>
       <use xlink:href="#DejaVuSans-42" transform="translate(154.638672 0)"/>
       <use xlink:href="#DejaVuSans-50" transform="translate(223.242188 0)"/>
       <use xlink:href="#DejaVuSans-5f" transform="translate(283.544922 0)"/>
       <use xlink:href="#DejaVuSans-44" transform="translate(333.544922 0)"/>
      </g>
     </g>
    </g>
    <g id="xtick_9">
     <g id="line2d_39">
      <g>
       <use xlink:href="#m8208e0268c" x="1008.045765" y="298.804404" style="stroke: #000000; stroke-width: 0.8"/>
      </g>
     </g>
     <g id="text_30">
      <!-- SinBP_M -->
      <g transform="translate(966.883236 324.009883) rotate(-15) scale(0.1 -0.1)">
       <use xlink:href="#DejaVuSans-53"/>
       <use xlink:href="#DejaVuSans-69" transform="translate(63.476562 0)"/>
       <use xlink:href="#DejaVuSans-6e" transform="translate(91.259766 0)"/>
       <use xlink:href="#DejaVuSans-42" transform="translate(154.638672 0)"/>
       <use xlink:href="#DejaVuSans-50" transform="translate(223.242188 0)"/>
       <use xlink:href="#DejaVuSans-5f" transform="translate(283.544922 0)"/>
       <use xlink:href="#DejaVuSans-4d" transform="translate(333.544922 0)"/>
      </g>
     </g>
    </g>
    <g id="text_31">
     <!-- Method -->
     <g transform="translate(896.105975 343.519366) scale(0.12 -0.12)">
      <use xlink:href="#DejaVuSans-4d"/>
      <use xlink:href="#DejaVuSans-65" transform="translate(86.279297 0)"/>
      <use xlink:href="#DejaVuSans-74" transform="translate(147.802734 0)"/>
      <use xlink:href="#DejaVuSans-68" transform="translate(187.011719 0)"/>
      <use xlink:href="#DejaVuSans-6f" transform="translate(250.390625 0)"/>
      <use xlink:href="#DejaVuSans-64" transform="translate(311.572266 0)"/>
     </g>
    </g>
   </g>
   <g id="matplotlib.axis_6">
    <g id="ytick_14">
     <g id="line2d_40">
      <path d="M 771.520699 298.804404 
L 1065.69875 298.804404 
" clip-path="url(#p5601c5c8d5)" style="fill: none; stroke-dasharray: 2.96,1.28; stroke-dashoffset: 0; stroke: #b0b0b0; stroke-opacity: 0.3; stroke-width: 0.8"/>
     </g>
     <g id="line2d_41">
      <g>
       <use xlink:href="#m6fbfb7d7c6" x="771.520699" y="298.804404" style="stroke: #000000; stroke-width: 0.8"/>
      </g>
     </g>
     <g id="text_32">
      <!-- 0.0 -->
      <g transform="translate(748.617574 302.603623) scale(0.1 -0.1)">
       <defs>
        <path id="DejaVuSans-2e" d="M 684 794 
L 1344 794 
L 1344 0 
L 684 0 
L 684 794 
z
" transform="scale(0.015625)"/>
       </defs>
       <use xlink:href="#DejaVuSans-30"/>
       <use xlink:href="#DejaVuSans-2e" transform="translate(63.623047 0)"/>
       <use xlink:href="#DejaVuSans-30" transform="translate(95.410156 0)"/>
      </g>
     </g>
    </g>
    <g id="ytick_15">
     <g id="line2d_42">
      <path d="M 771.520699 264.401911 
L 1065.69875 264.401911 
" clip-path="url(#p5601c5c8d5)" style="fill: none; stroke-dasharray: 2.96,1.28; stroke-dashoffset: 0; stroke: #b0b0b0; stroke-opacity: 0.3; stroke-width: 0.8"/>
     </g>
     <g id="line2d_43">
      <g>
       <use xlink:href="#m6fbfb7d7c6" x="771.520699" y="264.401911" style="stroke: #000000; stroke-width: 0.8"/>
      </g>
     </g>
     <g id="text_33">
      <!-- 2.5 -->
      <g transform="translate(748.617574 268.201129) scale(0.1 -0.1)">
       <use xlink:href="#DejaVuSans-32"/>
       <use xlink:href="#DejaVuSans-2e" transform="translate(63.623047 0)"/>
       <use xlink:href="#DejaVuSans-35" transform="translate(95.410156 0)"/>
      </g>
     </g>
    </g>
    <g id="ytick_16">
     <g id="line2d_44">
      <path d="M 771.520699 229.999417 
L 1065.69875 229.999417 
" clip-path="url(#p5601c5c8d5)" style="fill: none; stroke-dasharray: 2.96,1.28; stroke-dashoffset: 0; stroke: #b0b0b0; stroke-opacity: 0.3; stroke-width: 0.8"/>
     </g>
     <g id="line2d_45">
      <g>
       <use xlink:href="#m6fbfb7d7c6" x="771.520699" y="229.999417" style="stroke: #000000; stroke-width: 0.8"/>
      </g>
     </g>
     <g id="text_34">
      <!-- 5.0 -->
      <g transform="translate(748.617574 233.798635) scale(0.1 -0.1)">
       <use xlink:href="#DejaVuSans-35"/>
       <use xlink:href="#DejaVuSans-2e" transform="translate(63.623047 0)"/>
       <use xlink:href="#DejaVuSans-30" transform="translate(95.410156 0)"/>
      </g>
     </g>
    </g>
    <g id="ytick_17">
     <g id="line2d_46">
      <path d="M 771.520699 195.596923 
L 1065.69875 195.596923 
" clip-path="url(#p5601c5c8d5)" style="fill: none; stroke-dasharray: 2.96,1.28; stroke-dashoffset: 0; stroke: #b0b0b0; stroke-opacity: 0.3; stroke-width: 0.8"/>
     </g>
     <g id="line2d_47">
      <g>
       <use xlink:href="#m6fbfb7d7c6" x="771.520699" y="195.596923" style="stroke: #000000; stroke-width: 0.8"/>
      </g>
     </g>
     <g id="text_35">
      <!-- 7.5 -->
      <g transform="translate(748.617574 199.396142) scale(0.1 -0.1)">
       <defs>
        <path id="DejaVuSans-37" d="M 525 4666 
L 3525 4666 
L 3525 4397 
L 1831 0 
L 1172 0 
L 2766 4134 
L 525 4134 
L 525 4666 
z
" transform="scale(0.015625)"/>
       </defs>
       <use xlink:href="#DejaVuSans-37"/>
       <use xlink:href="#DejaVuSans-2e" transform="translate(63.623047 0)"/>
       <use xlink:href="#DejaVuSans-35" transform="translate(95.410156 0)"/>
      </g>
     </g>
    </g>
    <g id="ytick_18">
     <g id="line2d_48">
      <path d="M 771.520699 161.194429 
L 1065.69875 161.194429 
" clip-path="url(#p5601c5c8d5)" style="fill: none; stroke-dasharray: 2.96,1.28; stroke-dashoffset: 0; stroke: #b0b0b0; stroke-opacity: 0.3; stroke-width: 0.8"/>
     </g>
     <g id="line2d_49">
      <g>
       <use xlink:href="#m6fbfb7d7c6" x="771.520699" y="161.194429" style="stroke: #000000; stroke-width: 0.8"/>
      </g>
     </g>
     <g id="text_36">
      <!-- 10.0 -->
      <g transform="translate(742.255074 164.993648) scale(0.1 -0.1)">
       <use xlink:href="#DejaVuSans-31"/>
       <use xlink:href="#DejaVuSans-30" transform="translate(63.623047 0)"/>
       <use xlink:href="#DejaVuSans-2e" transform="translate(127.246094 0)"/>
       <use xlink:href="#DejaVuSans-30" transform="translate(159.033203 0)"/>
      </g>
     </g>
    </g>
    <g id="ytick_19">
     <g id="line2d_50">
      <path d="M 771.520699 126.791935 
L 1065.69875 126.791935 
" clip-path="url(#p5601c5c8d5)" style="fill: none; stroke-dasharray: 2.96,1.28; stroke-dashoffset: 0; stroke: #b0b0b0; stroke-opacity: 0.3; stroke-width: 0.8"/>
     </g>
     <g id="line2d_51">
      <g>
       <use xlink:href="#m6fbfb7d7c6" x="771.520699" y="126.791935" style="stroke: #000000; stroke-width: 0.8"/>
      </g>
     </g>
     <g id="text_37">
      <!-- 12.5 -->
      <g transform="translate(742.255074 130.591154) scale(0.1 -0.1)">
       <use xlink:href="#DejaVuSans-31"/>
       <use xlink:href="#DejaVuSans-32" transform="translate(63.623047 0)"/>
       <use xlink:href="#DejaVuSans-2e" transform="translate(127.246094 0)"/>
       <use xlink:href="#DejaVuSans-35" transform="translate(159.033203 0)"/>
      </g>
     </g>
    </g>
    <g id="ytick_20">
     <g id="line2d_52">
      <path d="M 771.520699 92.389441 
L 1065.69875 92.389441 
" clip-path="url(#p5601c5c8d5)" style="fill: none; stroke-dasharray: 2.96,1.28; stroke-dashoffset: 0; stroke: #b0b0b0; stroke-opacity: 0.3; stroke-width: 0.8"/>
     </g>
     <g id="line2d_53">
      <g>
       <use xlink:href="#m6fbfb7d7c6" x="771.520699" y="92.389441" style="stroke: #000000; stroke-width: 0.8"/>
      </g>
     </g>
     <g id="text_38">
      <!-- 15.0 -->
      <g transform="translate(742.255074 96.18866) scale(0.1 -0.1)">
       <use xlink:href="#DejaVuSans-31"/>
       <use xlink:href="#DejaVuSans-35" transform="translate(63.623047 0)"/>
       <use xlink:href="#DejaVuSans-2e" transform="translate(127.246094 0)"/>
       <use xlink:href="#DejaVuSans-30" transform="translate(159.033203 0)"/>
      </g>
     </g>
    </g>
    <g id="ytick_21">
     <g id="line2d_54">
      <path d="M 771.520699 57.986948 
L 1065.69875 57.986948 
" clip-path="url(#p5601c5c8d5)" style="fill: none; stroke-dasharray: 2.96,1.28; stroke-dashoffset: 0; stroke: #b0b0b0; stroke-opacity: 0.3; stroke-width: 0.8"/>
     </g>
     <g id="line2d_55">
      <g>
       <use xlink:href="#m6fbfb7d7c6" x="771.520699" y="57.986948" style="stroke: #000000; stroke-width: 0.8"/>
      </g>
     </g>
     <g id="text_39">
      <!-- 17.5 -->
      <g transform="translate(742.255074 61.786166) scale(0.1 -0.1)">
       <use xlink:href="#DejaVuSans-31"/>
       <use xlink:href="#DejaVuSans-37" transform="translate(63.623047 0)"/>
       <use xlink:href="#DejaVuSans-2e" transform="translate(127.246094 0)"/>
       <use xlink:href="#DejaVuSans-35" transform="translate(159.033203 0)"/>
      </g>
     </g>
    </g>
    <g id="ytick_22">
     <g id="line2d_56">
      <path d="M 771.520699 23.584454 
L 1065.69875 23.584454 
" clip-path="url(#p5601c5c8d5)" style="fill: none; stroke-dasharray: 2.96,1.28; stroke-dashoffset: 0; stroke: #b0b0b0; stroke-opacity: 0.3; stroke-width: 0.8"/>
     </g>
     <g id="line2d_57">
      <g>
       <use xlink:href="#m6fbfb7d7c6" x="771.520699" y="23.584454" style="stroke: #000000; stroke-width: 0.8"/>
      </g>
     </g>
     <g id="text_40">
      <!-- 20.0 -->
      <g transform="translate(742.255074 27.383673) scale(0.1 -0.1)">
       <use xlink:href="#DejaVuSans-32"/>
       <use xlink:href="#DejaVuSans-30" transform="translate(63.623047 0)"/>
       <use xlink:href="#DejaVuSans-2e" transform="translate(127.246094 0)"/>
       <use xlink:href="#DejaVuSans-30" transform="translate(159.033203 0)"/>
      </g>
     </g>
    </g>
    <g id="text_41">
     <!-- MAPE (%) -->
     <g transform="translate(735.759449 189.921187) rotate(-90) scale(0.12 -0.12)">
      <defs>
       <path id="DejaVuSans-25" d="M 4653 2053 
Q 4381 2053 4226 1822 
Q 4072 1591 4072 1178 
Q 4072 772 4226 539 
Q 4381 306 4653 306 
Q 4919 306 5073 539 
Q 5228 772 5228 1178 
Q 5228 1588 5073 1820 
Q 4919 2053 4653 2053 
z
M 4653 2450 
Q 5147 2450 5437 2106 
Q 5728 1763 5728 1178 
Q 5728 594 5436 251 
Q 5144 -91 4653 -91 
Q 4153 -91 3862 251 
Q 3572 594 3572 1178 
Q 3572 1766 3864 2108 
Q 4156 2450 4653 2450 
z
M 1428 4353 
Q 1159 4353 1004 4120 
Q 850 3888 850 3481 
Q 850 3069 1003 2837 
Q 1156 2606 1428 2606 
Q 1700 2606 1854 2837 
Q 2009 3069 2009 3481 
Q 2009 3884 1853 4118 
Q 1697 4353 1428 4353 
z
M 4250 4750 
L 4750 4750 
L 1831 -91 
L 1331 -91 
L 4250 4750 
z
M 1428 4750 
Q 1922 4750 2215 4408 
Q 2509 4066 2509 3481 
Q 2509 2891 2217 2550 
Q 1925 2209 1428 2209 
Q 931 2209 642 2551 
Q 353 2894 353 3481 
Q 353 4063 643 4406 
Q 934 4750 1428 4750 
z
" transform="scale(0.015625)"/>
      </defs>
      <use xlink:href="#DejaVuSans-4d"/>
      <use xlink:href="#DejaVuSans-41" transform="translate(86.279297 0)"/>
      <use xlink:href="#DejaVuSans-50" transform="translate(154.6875 0)"/>
      <use xlink:href="#DejaVuSans-45" transform="translate(214.990234 0)"/>
      <use xlink:href="#DejaVuSans-20" transform="translate(278.173828 0)"/>
      <use xlink:href="#DejaVuSans-28" transform="translate(309.960938 0)"/>
      <use xlink:href="#DejaVuSans-25" transform="translate(348.974609 0)"/>
      <use xlink:href="#DejaVuSans-29" transform="translate(443.994141 0)"/>
     </g>
    </g>
   </g>
   <g id="LineCollection_3">
    <path d="M 801.086332 70.974923 
L 801.086332 36.207799 
" clip-path="url(#p5601c5c8d5)" style="fill: none; stroke: #000000; stroke-width: 1.5"/>
    <path d="M 919.348865 90.90053 
L 919.348865 54.215469 
" clip-path="url(#p5601c5c8d5)" style="fill: none; stroke: #000000; stroke-width: 1.5"/>
    <path d="M 1037.611398 82.608278 
L 1037.611398 49.226747 
" clip-path="url(#p5601c5c8d5)" style="fill: none; stroke: #000000; stroke-width: 1.5"/>
   </g>
   <g id="line2d_58">
    <g clip-path="url(#p5601c5c8d5)">
     <use xlink:href="#m697e987efe" x="801.086332" y="70.974923" style="stroke: #000000"/>
     <use xlink:href="#m697e987efe" x="919.348865" y="90.90053" style="stroke: #000000"/>
     <use xlink:href="#m697e987efe" x="1037.611398" y="82.608278" style="stroke: #000000"/>
    </g>
   </g>
   <g id="line2d_59">
    <g clip-path="url(#p5601c5c8d5)">
     <use xlink:href="#m697e987efe" x="801.086332" y="36.207799" style="stroke: #000000"/>
     <use xlink:href="#m697e987efe" x="919.348865" y="54.215469" style="stroke: #000000"/>
     <use xlink:href="#m697e987efe" x="1037.611398" y="49.226747" style="stroke: #000000"/>
    </g>
   </g>
   <g id="patch_26">
    <path d="M 771.520699 298.804404 
L 771.520699 23.077969 
" style="fill: none; stroke: #000000; stroke-width: 0.8; stroke-linejoin: miter; stroke-linecap: square"/>
   </g>
   <g id="patch_27">
    <path d="M 1065.69875 298.804404 
L 1065.69875 23.077969 
" style="fill: none; stroke: #000000; stroke-width: 0.8; stroke-linejoin: miter; stroke-linecap: square"/>
   </g>
   <g id="patch_28">
    <path d="M 771.520699 298.804404 
L 1065.69875 298.804404 
" style="fill: none; stroke: #000000; stroke-width: 0.8; stroke-linejoin: miter; stroke-linecap: square"/>
   </g>
   <g id="patch_29">
    <path d="M 771.520699 23.077969 
L 1065.69875 23.077969 
" style="fill: none; stroke: #000000; stroke-width: 0.8; stroke-linejoin: miter; stroke-linecap: square"/>
   </g>
   <g id="text_42">
    <!-- SBP - Mean Absolute Percentage Error -->
    <g transform="translate(777.574959 17.077969) scale(0.13 -0.13)">
     <defs>
      <path id="DejaVuSans-Bold-63" d="M 3366 3391 
L 3366 2478 
Q 3138 2634 2908 2709 
Q 2678 2784 2431 2784 
Q 1963 2784 1702 2511 
Q 1441 2238 1441 1747 
Q 1441 1256 1702 982 
Q 1963 709 2431 709 
Q 2694 709 2930 787 
Q 3166 866 3366 1019 
L 3366 103 
Q 3103 6 2833 -42 
Q 2563 -91 2291 -91 
Q 1344 -91 809 395 
Q 275 881 275 1747 
Q 275 2613 809 3098 
Q 1344 3584 2291 3584 
Q 2566 3584 2833 3536 
Q 3100 3488 3366 3391 
z
" transform="scale(0.015625)"/>
      <path id="DejaVuSans-Bold-67" d="M 2919 594 
Q 2688 288 2409 144 
Q 2131 0 1766 0 
Q 1125 0 706 504 
Q 288 1009 288 1791 
Q 288 2575 706 3076 
Q 1125 3578 1766 3578 
Q 2131 3578 2409 3434 
Q 2688 3291 2919 2981 
L 2919 3500 
L 4044 3500 
L 4044 353 
Q 4044 -491 3511 -936 
Q 2978 -1381 1966 -1381 
Q 1638 -1381 1331 -1331 
Q 1025 -1281 716 -1178 
L 716 -306 
Q 1009 -475 1290 -558 
Q 1572 -641 1856 -641 
Q 2406 -641 2662 -400 
Q 2919 -159 2919 353 
L 2919 594 
z
M 2181 2772 
Q 1834 2772 1640 2515 
Q 1447 2259 1447 1791 
Q 1447 1309 1634 1061 
Q 1822 813 2181 813 
Q 2531 813 2725 1069 
Q 2919 1325 2919 1791 
Q 2919 2259 2725 2515 
Q 2531 2772 2181 2772 
z
" transform="scale(0.015625)"/>
     </defs>
     <use xlink:href="#DejaVuSans-Bold-53"/>
     <use xlink:href="#DejaVuSans-Bold-42" transform="translate(72.021484 0)"/>
     <use xlink:href="#DejaVuSans-Bold-50" transform="translate(148.242188 0)"/>
     <use xlink:href="#DejaVuSans-Bold-20" transform="translate(221.533203 0)"/>
     <use xlink:href="#DejaVuSans-Bold-2d" transform="translate(256.347656 0)"/>
     <use xlink:href="#DejaVuSans-Bold-20" transform="translate(297.851562 0)"/>
     <use xlink:href="#DejaVuSans-Bold-4d" transform="translate(332.666016 0)"/>
     <use xlink:href="#DejaVuSans-Bold-65" transform="translate(432.177734 0)"/>
     <use xlink:href="#DejaVuSans-Bold-61" transform="translate(500 0)"/>
     <use xlink:href="#DejaVuSans-Bold-6e" transform="translate(567.480469 0)"/>
     <use xlink:href="#DejaVuSans-Bold-20" transform="translate(638.671875 0)"/>
     <use xlink:href="#DejaVuSans-Bold-41" transform="translate(673.486328 0)"/>
     <use xlink:href="#DejaVuSans-Bold-62" transform="translate(750.878906 0)"/>
     <use xlink:href="#DejaVuSans-Bold-73" transform="translate(822.460938 0)"/>
     <use xlink:href="#DejaVuSans-Bold-6f" transform="translate(881.982422 0)"/>
     <use xlink:href="#DejaVuSans-Bold-6c" transform="translate(950.683594 0)"/>
     <use xlink:href="#DejaVuSans-Bold-75" transform="translate(984.960938 0)"/>
     <use xlink:href="#DejaVuSans-Bold-74" transform="translate(1056.152344 0)"/>
     <use xlink:href="#DejaVuSans-Bold-65" transform="translate(1103.955078 0)"/>
     <use xlink:href="#DejaVuSans-Bold-20" transform="translate(1171.777344 0)"/>
     <use xlink:href="#DejaVuSans-Bold-50" transform="translate(1206.591797 0)"/>
     <use xlink:href="#DejaVuSans-Bold-65" transform="translate(1279.882812 0)"/>
     <use xlink:href="#DejaVuSans-Bold-72" transform="translate(1347.705078 0)"/>
     <use xlink:href="#DejaVuSans-Bold-63" transform="translate(1397.021484 0)"/>
     <use xlink:href="#DejaVuSans-Bold-65" transform="translate(1456.298828 0)"/>
     <use xlink:href="#DejaVuSans-Bold-6e" transform="translate(1524.121094 0)"/>
     <use xlink:href="#DejaVuSans-Bold-74" transform="translate(1595.3125 0)"/>
     <use xlink:href="#DejaVuSans-Bold-61" transform="translate(1643.115234 0)"/>
     <use xlink:href="#DejaVuSans-Bold-67" transform="translate(1710.595703 0)"/>
     <use xlink:href="#DejaVuSans-Bold-65" transform="translate(1782.177734 0)"/>
     <use xlink:href="#DejaVuSans-Bold-20" transform="translate(1850 0)"/>
     <use xlink:href="#DejaVuSans-Bold-45" transform="translate(1884.814453 0)"/>
     <use xlink:href="#DejaVuSans-Bold-72" transform="translate(1953.125 0)"/>
     <use xlink:href="#DejaVuSans-Bold-72" transform="translate(2002.441406 0)"/>
     <use xlink:href="#DejaVuSans-Bold-6f" transform="translate(2051.757812 0)"/>
     <use xlink:href="#DejaVuSans-Bold-72" transform="translate(2120.458984 0)"/>
    </g>
   </g>
   <g id="legend_3">
    <g id="patch_30">
     <path d="M 998.881562 45.756094 
L 1058.69875 45.756094 
Q 1060.69875 45.756094 1060.69875 43.756094 
L 1060.69875 30.077969 
Q 1060.69875 28.077969 1058.69875 28.077969 
L 998.881562 28.077969 
Q 996.881562 28.077969 996.881562 30.077969 
L 996.881562 43.756094 
Q 996.881562 45.756094 998.881562 45.756094 
z
" style="fill: #ffffff; opacity: 0.8; stroke: #cccccc; stroke-linejoin: miter"/>
    </g>
    <g id="patch_31">
     <path d="M 1000.881562 39.676406 
L 1020.881562 39.676406 
L 1020.881562 32.676406 
L 1000.881562 32.676406 
z
" style="fill: #008000; opacity: 0.8"/>
    </g>
    <g id="text_43">
     <!-- MAPE -->
     <g transform="translate(1028.881562 39.676406) scale(0.1 -0.1)">
      <use xlink:href="#DejaVuSans-4d"/>
      <use xlink:href="#DejaVuSans-41" transform="translate(86.279297 0)"/>
      <use xlink:href="#DejaVuSans-50" transform="translate(154.6875 0)"/>
      <use xlink:href="#DejaVuSans-45" transform="translate(214.990234 0)"/>
     </g>
    </g>
   </g>
  </g>
 </g>
 <defs>
  <clipPath id="ped3c73dd22">
   <rect x="42.53875" y="23.077969" width="294.178051" height="275.726436"/>
  </clipPath>
  <clipPath id="p2b163357d8">
   <rect x="407.029725" y="23.077969" width="294.178051" height="275.726436"/>
  </clipPath>
  <clipPath id="p5601c5c8d5">
   <rect x="771.520699" y="23.077969" width="294.178051" height="275.726436"/>
  </clipPath>
 </defs>
</svg>
